<svg xmlns="http://www.w3.org/2000/svg" xmlns:xlink="http://www.w3.org/1999/xlink" xmlns:inkscape="http://www.inkscape.org/namespaces/inkscape" version="1.1" width="1200" height="400" viewBox="0 0 1200 400">
<defs>
<clipPath id="clip_1">
<path transform="matrix(1,0,0,-1,0,400)" d="M0 400H1200V0H0Z"/>
</clipPath>
<path id="font_2_150" d="M.27200318-.0019989014C.24533081-.0019989014 .23199463 .0053354899 .23199463 .020004273V.6239929H.039993287C.03333028 .6239929 .028330485 .6263275 .024993897 .6309967 .02166748 .6356659 .020004273 .643336 .020004273 .65400698V.66999819C.020004273 .6806691 .02166748 .68833419 .024993897 .69299319 .028330485 .69766238 .03333028 .69999697 .039993287 .69999697H.5090027C.5163371 .69999697 .5215047 .69766238 .5245056 .69299319 .52750656 .68833419 .52900698 .6806691 .52900698 .66999819V.65400698C.52900698 .643336 .52750656 .6356659 .5245056 .6309967 .5215047 .6263275 .5163371 .6239929 .5090027 .6239929H.32000733V.020004273C.32000733 .0053354899 .30667115-.0019989014 .27999879-.0019989014H.27200318Z"/>
<clipPath id="clip_3">
<path transform="matrix(1,0,0,-1,0,400)" d="M0 400H1200V0H0Z"/>
</clipPath>
<path id="font_2_44" d="M.1269989 0C.11632792 0 .10865784 .0023345948 .10398865 .007003784 .09932963 .011672974 .09700012 .019337973 .09700012 .02999878V.66999819C.09700012 .6806691 .09932963 .68833419 .10398865 .69299319 .10865784 .69766238 .11632792 .69999697 .1269989 .69999697H.47599793C.4833323 .69999697 .48849998 .69766238 .49150086 .69299319 .49450175 .68833419 .4960022 .6806691 .4960022 .66999819V.65400698C.4960022 .643336 .49450175 .6356659 .49150086 .6309967 .48849998 .6263275 .4833323 .6239929 .47599793 .6239929H.18499756V.3959961H.44599916C.45333354 .3959961 .4585012 .3936615 .46150209 .3889923 .46450297 .38433329 .46600343 .3766683 .46600343 .3659973V.3500061C.46600343 .3393351 .46450297 .33166505 .46150209 .32699586 .4585012 .32233683 .45333354 .32000733 .44599916 .32000733H.18499756V.07600403H.477005C.4843394 .07600403 .48950196 .07366943 .49249269 .069000247 .49549357 .064331058 .49699403 .056666059 .49699403 .04600525V.02999878C.49699403 .019337973 .49549357 .011672974 .49249269 .007003784 .48950196 .0023345948 .4843394 0 .477005 0H.1269989Z"/>
<path id="font_2_29" d="M.3789978-.005996704C.2690023-.005996704 .1878357 .02283732 .13549805 .08050537 .08317057 .13817342 .057006837 .228007 .057006837 .3500061 .057006837 .5873311 .16500347 .70599368 .3809967 .70599368 .41366069 .70599368 .4451599 .7024943 .47549439 .6954956 .50582888 .6884969 .5299988 .67999777 .54800418 .66999819 .56400558 .66067 .5720062 .652003 .5720062 .6439972 .5720062 .634669 .5678355 .6226705 .559494 .6080017 .5511627 .59333297 .54399618 .58599856 .5379944 .58599856 .53600057 .58599856 .5275014 .5901642 .51249697 .5984955 .49750266 .6068268 .47917176 .6141612 .45750428 .62049868 .4358368 .6268361 .41100059 .6300049 .3829956 .6300049 .30232749 .6300049 .24299114 .6076711 .20498657 .56300356 .16699219 .518336 .147995 .44700114 .147995 .34899903 .147995 .2530009 .16682942 .1825002 .20449829 .13749695 .24216716 .09250387 .30033366 .070007327 .3789978 .070007327 .41166178 .070007327 .43966166 .07383728 .46299745 .08149719 .48633323 .089167278 .5093333 .09899902 .5319977 .11099243 .54133608 .116994228 .54766848 .11999512 .5509949 .11999512 .55699667 .11999512 .56433108 .11266073 .57299807 .09799194 .58166506 .083333339 .58599856 .07266744 .58599856 .06599426 .58599856 .05599467 .57533267 .04499817 .55400088 .03300476 .53400167 .021672568 .508667 .012339274 .47799684 .005004883 .44733683-.0023295086 .41433717-.005996704 .3789978-.005996704Z"/>
<path id="font_2_68" d="M.13699341-.0019989014C.110331218-.0019989014 .09700012 .0053354899 .09700012 .020004273V.6799927C.09700012 .69466146 .110331218 .70199587 .13699341 .70199587H.14500427C.17166646 .70199587 .18499756 .69466146 .18499756 .6799927V.39700318H.5469971V.6799927C.5469971 .69466146 .56033328 .70199587 .5870056 .70199587H.5950012C.6216634 .70199587 .6349945 .69466146 .6349945 .6799927V.020004273C.6349945 .0053354899 .6216634-.0019989014 .5950012-.0019989014H.5870056C.56033328-.0019989014 .5469971 .0053354899 .5469971 .020004273V.32099916H.18499756V.020004273C.18499756 .0053354899 .17166646-.0019989014 .14500427-.0019989014H.13699341Z"/>
<path id="font_2_98" d="M.13000489-.0019989014C.10333252-.0019989014 .08999634 .0053354899 .08999634 .020004273V.6799927C.08999634 .69466146 .10333252 .70199587 .13000489 .70199587H.15100098C.16167195 .70199587 .1701711 .70066329 .17649842 .69799807 .18283589 .6953328 .18833415 .69033309 .19299317 .68299868L.5070038 .20899964C.518336 .19233704 .52933248 .17233785 .5399933 .14900208L.54400637 .1499939C.54267379 .16533406 .54200747 .18800354 .54200747 .21800232V.6799927C.54200747 .69466146 .55533859 .70199587 .58200076 .70199587H.5890045C.6156667 .70199587 .6289978 .69466146 .6289978 .6799927V.020004273C.6289978 .0053354899 .6156667-.0019989014 .5890045-.0019989014H.56900027C.55166628-.0019989014 .53999838 .002665202 .5339966 .011993408L.21200562 .4980011C.20067342 .5146637 .18967183 .5346629 .17900086 .55799868L.17500305 .55700686C.17633565 .5416667 .17700196 .5189972 .17700196 .4889984V.020004273C.17700196 .0053354899 .16366577-.0019989014 .13699341-.0019989014H.13000489Z"/>
<path id="font_2_72" d="M.13699341-.0019989014C.110331218-.0019989014 .09700012 .0053354899 .09700012 .020004273V.6799927C.09700012 .69466146 .110331218 .70199587 .13699341 .70199587H.14500427C.17166646 .70199587 .18499756 .69466146 .18499756 .6799927V.020004273C.18499756 .0053354899 .17166646-.0019989014 .14500427-.0019989014H.13699341Z"/>
<path id="font_2_85" d="M.10699463-.005996704C.08099365-.005996704 .05765788-.0036671956 .036987306 .0009918213 .016326905 .0056610109 .005996704 .0139973959 .005996704 .026000977 .005996704 .032663984 .0079956059 .043492635 .011993408 .05848694 .016001383 .07349142 .021336874 .08099365 .027999878 .08099365 .031336469 .08099365 .03916931 .0794932 .051498414 .07649231 .063837688 .07350159 .07700602 .072006229 .09100342 .072006229 .14033 .072006229 .17599488 .08167013 .19799805 .100997928 .22000122 .1203359 .23100281 .15167237 .23100281 .19500733V.6799927C.23100281 .69466146 .24433391 .70199587 .2709961 .70199587H.27900697C.30566917 .70199587 .31900025 .69466146 .31900025 .6799927V.20500183C.31900025 .06433614 .24833171-.005996704 .10699463-.005996704Z"/>
<path id="font_2_3" d="M.054992677-.0019989014C.026326498-.0019989014 .011993408 .0036671956 .011993408 .01499939 .011993408 .018335978 .012995402 .023005167 .01499939 .029006958L.2519989 .68600466C.2559967 .69666549 .2693329 .70199587 .29200746 .70199587H.32099916C.34499613 .70199587 .35832725 .69666549 .36099244 .68600466L.5980072 .027999878C.60000106 .023330689 .6009979 .018997193 .6009979 .01499939 .6009979 .0036671956 .58666488-.0019989014 .55799868-.0019989014H.55000308C.5266673-.0019989014 .5133311 .0033365887 .5099945 .014007568L.45100404 .17799378H.15699768L.1000061 .014007568C.09666952 .0033365887 .083333339-.0019989014 .05999756-.0019989014H.054992677M.42399598 .2539978 .31900025 .55200198C.31566368 .5626628 .31166587 .58199569 .30700685 .6100006H.30499269C.29966227 .58333846 .29466249 .56400558 .2899933 .55200198L.18499756 .2539978H.42399598Z"/>
</defs>
<g inkscape:groupmode="layer" inkscape:label="Layer 1">
<path transform="matrix(1,0,0,-1,0,400)" d="M0 0H1200V400H0Z" fill="#030404"/>
<g clip-path="url(#clip_1)">
<path transform="matrix(1,0,0,-1,0,400)" stroke-width="1" stroke-linecap="butt" stroke-miterlimit="10" stroke-linejoin="miter" fill="none" stroke="#231f20" d="M1200 0H0V400H1200Z"/>
</g>
<use data-text="T" xlink:href="#font_2_150" transform="matrix(225,0,0,-225,190.0625,263.7471)" fill="#ffffff"/>
<g clip-path="url(#clip_3)">
<use data-text="E" xlink:href="#font_2_44" transform="matrix(157.5,0,0,-157.5,329.5615,263.7471)" fill="#ffffff"/>
<use data-text="C" xlink:href="#font_2_29" transform="matrix(157.5,0,0,-157.5,426.73899,263.7471)" fill="#ffffff"/>
<use data-text="H" xlink:href="#font_2_68" transform="matrix(157.5,0,0,-157.5,535.414,263.7471)" fill="#ffffff"/>
<use data-text="N" xlink:href="#font_2_98" transform="matrix(157.5,0,0,-157.5,662.044,263.7471)" fill="#ffffff"/>
<use data-text="I" xlink:href="#font_2_72" transform="matrix(157.5,0,0,-157.5,786.469,263.7471)" fill="#ffffff"/>
<use data-text="J" xlink:href="#font_2_85" transform="matrix(157.5,0,0,-157.5,842.224,263.7471)" fill="#ffffff"/>
<use data-text="I" xlink:href="#font_2_72" transform="matrix(157.5,0,0,-157.5,916.7215,263.7471)" fill="#ffffff"/>
<use data-text="A" xlink:href="#font_2_3" transform="matrix(157.5,0,0,-157.5,972.4765,263.7471)" fill="#ffffff"/>
<use data-text="N" xlink:href="#font_2_98" transform="matrix(157.5,0,0,-157.5,1080.2066,263.7471)" fill="#ffffff"/>
<path transform="matrix(1,0,0,-1,136.124,126.19809)" d="M0 0C0-.285 .533-5.221-3.55-9.306-7.636-13.392-12.576-12.858-12.858-12.858H-24.72C-26.893-12.858-28.932-13.704-30.466-15.238-32.003-16.773-32.847-18.816-32.847-20.986V-32.848C-32.847-35.016-32.003-37.059-30.466-38.593-28.932-40.125-26.887-40.971-24.72-40.971H-12.858C-12.576-40.971-7.636-40.439-3.55-44.523 .533-48.609 0-53.543 0-53.831V-65.694C0-67.863 .845-69.905 2.382-71.439 3.915-72.973 5.955-73.82 8.128-73.82H19.987C22.156-73.82 24.201-72.973 25.734-71.439 27.27-69.905 28.112-67.863 28.112-65.694V-53.831C28.112-51.66 27.27-49.619 25.734-48.084 24.201-46.549 22.161-45.705 19.987-45.705H8.128C7.842-45.705 2.905-46.238-1.178-42.152-5.264-38.067-4.731-33.135-4.731-32.848V-20.986C-4.731-20.697-5.264-15.766-1.178-11.681 2.905-7.593 7.842-8.125 8.128-8.125L19.987-8.127C22.156-8.127 24.201-7.281 25.734-5.746 27.27-4.209 28.112-2.168 28.115 0V11.861C28.112 14.033 27.27 16.071 25.734 17.606 24.201 19.14 22.156 19.989 19.987 19.989H8.128C5.955 19.989 3.915 19.14 2.382 17.606 .845 16.071 0 14.033 0 11.861Z" fill="#f47e4c"/>
<path transform="matrix(1,0,0,-1,30.6396,230.4833)" d="M0 0C1.536 1.533 2.377 3.573 2.377 5.746V17.607C2.377 17.891 1.846 22.828 5.934 26.914 10.02 31 14.951 30.462 15.238 30.462H27.098C29.27 30.462 31.311 31.312 32.848 32.846 34.381 34.382 35.227 36.422 35.227 38.591V50.454C35.227 52.622 34.381 54.664 32.848 56.199 31.311 57.732 29.27 58.58 27.102 58.58H15.238C13.067 58.58 11.025 57.732 9.492 56.199 7.957 54.664 7.113 52.622 7.113 50.454V38.591C7.113 38.305 7.648 33.368 3.563 29.285-.525 25.201-5.461 25.734-5.744 25.734H-17.605C-19.777 25.734-21.816 24.884-23.354 23.35-24.887 21.817-25.734 19.775-25.734 17.607V5.746C-25.734 3.573-24.887 1.533-23.354 0-21.816-1.537-19.777-2.383-17.605-2.383H-5.744C-3.574-2.383-1.535-1.537 0 0" fill="#ffffff"/>
<path transform="matrix(1,0,0,-1,30.6396,230.4833)" stroke-width="1" stroke-linecap="butt" stroke-miterlimit="10" stroke-linejoin="miter" fill="none" stroke="#231f20" d="M0 0C1.536 1.533 2.377 3.573 2.377 5.746V17.607C2.377 17.891 1.846 22.828 5.934 26.914 10.02 31 14.951 30.462 15.238 30.462H27.098C29.27 30.462 31.311 31.312 32.848 32.846 34.381 34.382 35.227 36.422 35.227 38.591V50.454C35.227 52.622 34.381 54.664 32.848 56.199 31.311 57.732 29.27 58.58 27.102 58.58H15.238C13.067 58.58 11.025 57.732 9.492 56.199 7.957 54.664 7.113 52.622 7.113 50.454V38.591C7.113 38.305 7.648 33.368 3.563 29.285-.525 25.201-5.461 25.734-5.744 25.734H-17.605C-19.777 25.734-21.816 24.884-23.354 23.35-24.887 21.817-25.734 19.775-25.734 17.607V5.746C-25.734 3.573-24.887 1.533-23.354 0-21.816-1.537-19.777-2.383-17.605-2.383H-5.744C-3.574-2.383-1.535-1.537 0 0"/>
<path transform="matrix(1,0,0,-1,30.6396,131.94422)" d="M0 0C1.536 1.532 2.382 3.578 2.382 5.746V17.607C2.377 22.087-1.265 25.735-5.744 25.735H-17.605C-19.777 25.735-21.816 24.891-23.354 23.353-24.887 21.817-25.734 19.779-25.734 17.607V5.746C-25.734 1.267-22.088-2.379-17.605-2.379H-5.744C-3.574-2.379-1.535-1.535 0 0" fill="#ffffff"/>
<path transform="matrix(1,0,0,-1,30.6396,131.94422)" stroke-width="1" stroke-linecap="butt" stroke-miterlimit="10" stroke-linejoin="miter" fill="none" stroke="#231f20" d="M0 0C1.536 1.532 2.382 3.578 2.382 5.746V17.607C2.377 22.087-1.265 25.735-5.744 25.735H-17.605C-19.777 25.735-21.816 24.891-23.354 23.353-24.887 21.817-25.734 19.779-25.734 17.607V5.746C-25.734 1.267-22.088-2.379-17.605-2.379H-5.744C-3.574-2.379-1.535-1.535 0 0"/>
<path transform="matrix(1,0,0,-1,30.039,198.1835)" d="M0 0C.208 .174 .409 .355 .603 .546 2.134 2.08 2.98 4.12 2.98 6.291V18.154C2.98 22.634-.666 26.28-5.146 26.28H-17.006C-18.907 26.28-20.71 25.632-22.153 24.442-22.364 24.27-22.564 24.091-22.757 23.896-24.292 22.36-25.136 20.322-25.136 18.151V6.286C-25.136 1.809-21.492-1.838-17.009-1.838L-5.149-1.839C-3.251-1.839-1.448-1.189 0 0" fill="#ffffff"/>
<path transform="matrix(1,0,0,-1,30.039,198.1835)" stroke-width="1" stroke-linecap="butt" stroke-miterlimit="10" stroke-linejoin="miter" fill="none" stroke="#231f20" d="M0 0C.208 .174 .409 .355 .603 .546 2.134 2.08 2.98 4.12 2.98 6.291V18.154C2.98 22.634-.666 26.28-5.146 26.28H-17.006C-18.907 26.28-20.71 25.632-22.153 24.442-22.364 24.27-22.564 24.091-22.757 23.896-24.292 22.36-25.136 20.322-25.136 18.151V6.286C-25.136 1.809-21.492-1.838-17.009-1.838L-5.149-1.839C-3.251-1.839-1.448-1.189 0 0"/>
<path transform="matrix(1,0,0,-1,72.9834,141.4364)" d="M0 0C-1.535-1.533-2.381-3.571-2.381-5.744V-17.602C-2.381-22.086 1.265-25.732 5.744-25.732H17.606C19.778-25.732 21.817-24.887 23.353-23.353 24.889-21.815 25.733-19.777 25.733-17.602V-5.744C25.733-1.264 22.088 2.38 17.606 2.386L5.744 2.38C3.572 2.38 1.533 1.537 0 0" fill="#ffffff"/>
<path transform="matrix(1,0,0,-1,72.9834,141.4364)" stroke-width="1" stroke-linecap="butt" stroke-miterlimit="10" stroke-linejoin="miter" fill="none" stroke="#231f20" d="M0 0C-1.535-1.533-2.381-3.571-2.381-5.744V-17.602C-2.381-22.086 1.265-25.732 5.744-25.732H17.606C19.778-25.732 21.817-24.887 23.353-23.353 24.889-21.815 25.733-19.777 25.733-17.602V-5.744C25.733-1.264 22.088 2.38 17.606 2.386L5.744 2.38C3.572 2.38 1.533 1.537 0 0"/>
<path transform="matrix(1,0,0,-1,30.6396,164.789)" d="M0 0C1.536 1.532 2.377 3.573 2.382 5.745L2.377 17.604C2.382 17.894 1.846 22.83 5.934 26.914 10.02 30.998 14.956 30.464 15.238 30.464H27.102C29.27 30.464 31.311 31.312 32.848 32.847 34.381 34.382 35.227 36.423 35.227 38.593V50.452C35.227 52.624 34.381 54.662 32.848 56.201 31.311 57.735 29.27 58.576 27.102 58.576H15.238C13.067 58.576 11.029 57.735 9.492 56.201 7.958 54.662 7.113 52.624 7.113 50.452V38.593C7.113 38.306 7.648 33.368 3.563 29.285-.523 25.202-5.461 25.733-5.744 25.733H-17.605C-19.777 25.733-21.816 24.888-23.354 23.351-24.887 21.815-25.734 19.776-25.734 17.604V5.745C-25.734 3.573-24.887 1.532-23.354 0-21.816-1.534-19.777-2.382-17.605-2.382H-5.744C-3.574-2.382-1.535-1.534 0 0" fill="#ffffff"/>
<path transform="matrix(1,0,0,-1,30.6396,164.789)" stroke-width="1" stroke-linecap="butt" stroke-miterlimit="10" stroke-linejoin="miter" fill="none" stroke="#231f20" d="M0 0C1.536 1.532 2.377 3.573 2.382 5.745L2.377 17.604C2.382 17.894 1.846 22.83 5.934 26.914 10.02 30.998 14.956 30.464 15.238 30.464H27.102C29.27 30.464 31.311 31.312 32.848 32.847 34.381 34.382 35.227 36.423 35.227 38.593V50.452C35.227 52.624 34.381 54.662 32.848 56.201 31.311 57.735 29.27 58.576 27.102 58.576H15.238C13.067 58.576 11.029 57.735 9.492 56.201 7.958 54.662 7.113 52.624 7.113 50.452V38.593C7.113 38.306 7.648 33.368 3.563 29.285-.523 25.202-5.461 25.733-5.744 25.733H-17.605C-19.777 25.733-21.816 24.888-23.354 23.351-24.887 21.815-25.734 19.776-25.734 17.604V5.745C-25.734 3.573-24.887 1.532-23.354 0-21.816-1.534-19.777-2.382-17.605-2.382H-5.744C-3.574-2.382-1.535-1.534 0 0"/>
<path transform="matrix(1,0,0,-1,164.4042,257.5819)" d="M0 0V11.856C0 16.34-3.643 19.989-8.122 19.989H-19.986C-22.155 19.989-24.198 19.138-25.731 17.606-27.268 16.068-28.11 14.027-28.11 11.856V0C-28.11-4.483-24.464-8.13-19.986-8.13H-8.122C-5.954-8.13-3.911-7.284-2.376-5.748-.845-4.214 0-2.173 0 0" fill="#ffffff"/>
<path transform="matrix(1,0,0,-1,164.4042,257.5819)" stroke-width="1" stroke-linecap="butt" stroke-miterlimit="10" stroke-linejoin="miter" fill="none" stroke="#231f20" d="M0 0V11.856C0 16.34-3.643 19.989-8.122 19.989H-19.986C-22.155 19.989-24.198 19.138-25.731 17.606-27.268 16.068-28.11 14.027-28.11 11.856V0C-28.11-4.483-24.464-8.13-19.986-8.13H-8.122C-5.954-8.13-3.911-7.284-2.376-5.748-.845-4.214 0-2.173 0 0"/>
<path transform="matrix(1,0,0,-1,65.8623,245.7274)" d="M0 0C0 4.48-3.644 8.127-8.122 8.125L-19.988 8.127C-22.158 8.127-24.199 7.281-25.73 5.747-27.268 4.214-28.111 2.173-28.111 0V-11.86C-28.111-16.34-24.465-19.984-19.988-19.988H-8.122C-5.955-19.984-3.911-19.142-2.379-17.607-.843-16.07 0-14.029 0-11.86Z" fill="#ffffff"/>
<path transform="matrix(1,0,0,-1,65.8623,245.7274)" stroke-width="1" stroke-linecap="butt" stroke-miterlimit="10" stroke-linejoin="miter" fill="none" stroke="#231f20" d="M0 0C0 4.48-3.644 8.127-8.122 8.125L-19.988 8.127C-22.158 8.127-24.199 7.281-25.73 5.747-27.268 4.214-28.111 2.173-28.111 0V-11.86C-28.111-16.34-24.465-19.984-19.988-19.988H-8.122C-5.955-19.984-3.911-19.142-2.379-17.607-.843-16.07 0-14.029 0-11.86V0Z"/>
<path transform="matrix(1,0,0,-1,131.9169,114.52139)" d="M0 0C0 4.482-3.645 8.126-8.125 8.126H-19.987C-22.158 8.126-24.2 7.28-25.731 5.747-27.264 4.213-28.112 2.174-28.112 0V-11.861C-28.112-16.342-24.467-19.983-19.987-19.989H-8.125C-5.954-19.983-3.914-19.146-2.378-17.605-.842-16.07 0-14.032 0-11.861Z" fill="#ffffff"/>
<path transform="matrix(1,0,0,-1,131.9169,114.52139)" stroke-width="1" stroke-linecap="butt" stroke-miterlimit="10" stroke-linejoin="miter" fill="none" stroke="#231f20" d="M0 0C0 4.482-3.645 8.126-8.125 8.126H-19.987C-22.158 8.126-24.2 7.28-25.731 5.747-27.264 4.213-28.112 2.174-28.112 0V-11.861C-28.112-16.342-24.467-19.983-19.987-19.989H-8.125C-5.954-19.983-3.914-19.146-2.378-17.605-.842-16.07 0-14.032 0-11.861V0Z"/>
<path transform="matrix(1,0,0,-1,164.4931,147.0966)" d="M0 0C0 4.48-3.644 8.129-8.125 8.124L-19.99 8.129C-22.158 8.129-24.201 7.281-25.732 5.748-27.266 4.211-28.113 2.172-28.113 0V-11.862C-28.113-16.342-24.465-19.985-19.99-19.986H-8.125C-5.956-19.985-3.914-19.141-2.38-17.606-.844-16.072 0-14.033 0-11.862Z" fill="#ffffff"/>
<path transform="matrix(1,0,0,-1,164.4931,147.0966)" stroke-width="1" stroke-linecap="butt" stroke-miterlimit="10" stroke-linejoin="miter" fill="none" stroke="#231f20" d="M0 0C0 4.48-3.644 8.129-8.125 8.124L-19.99 8.129C-22.158 8.129-24.201 7.281-25.732 5.748-27.266 4.211-28.113 2.172-28.113 0V-11.862C-28.113-16.342-24.465-19.985-19.99-19.986H-8.125C-5.956-19.985-3.914-19.141-2.38-17.606-.844-16.072 0-14.033 0-11.862V0Z"/>
<path transform="matrix(1,0,0,-1,131.5595,245.7255)" d="M0 0C0 .288-.529 5.227 3.555 9.312 7.637 13.395 12.576 12.861 12.859 12.861H24.722C26.893 12.861 28.932 13.707 30.468 15.242 32.001 16.781 32.849 18.817 32.849 20.984V32.851C32.849 35.018 32.001 37.06 30.468 38.595 28.932 40.129 26.893 40.974 24.722 40.974H12.859C12.576 40.974 7.637 40.441 3.555 44.531-.529 48.613 0 53.547 0 53.833V65.694C0 67.867-.845 69.906-2.381 71.439-3.915 72.975-5.955 73.822-8.128 73.822H-19.988C-22.156 73.822-24.199 72.979-25.734 71.439-27.268 69.908-28.113 67.867-28.114 65.694L-28.113 53.833C-28.113 53.547-27.578 48.613-31.666 44.531-35.752 40.441-40.689 40.974-40.97 40.974H-52.834C-55.004 40.974-57.045 40.129-58.582 38.595-60.116 37.06-60.959 35.018-60.959 32.851V20.984C-60.959 18.817-60.116 16.775-58.582 15.242-57.045 13.707-55.004 12.861-52.834 12.861H-40.97C-38.801 12.861-36.762 13.707-35.224 15.242-33.695 16.775-32.846 18.817-32.846 20.99V32.851C-32.846 33.135-33.377 38.07-29.295 42.156-25.212 46.242-20.273 45.707-19.988 45.707H-8.128C-7.842 45.707-2.902 46.242 1.18 42.156 5.264 38.072 4.733 33.135 4.733 32.851V20.984C4.733 20.704 5.264 15.767 1.18 11.682-2.902 7.594-7.842 8.129-8.128 8.129H-19.988C-22.156 8.129-24.199 7.281-25.734 5.75-27.268 4.212-28.113 2.171-28.114 0V-11.856C-28.113-14.029-27.268-16.07-25.734-17.604-24.199-19.141-22.156-19.986-19.988-19.986H-8.128C-5.955-19.986-3.915-19.141-2.381-17.604-.845-16.07 0-14.029 0-11.856Z" fill="#15aac8"/>
<path transform="matrix(1,0,0,-1,98.7138,245.7255)" d="M0 0C0 .287-.533 5.225 3.553 9.309 7.634 13.395 12.574 12.861 12.859 12.861H24.719C26.891 12.861 28.931 13.705 30.465 15.24 32.001 16.779 32.85 18.817 32.85 20.984V32.851C32.85 35.018 32.001 37.06 30.465 38.595 28.931 40.129 26.891 40.974 24.719 40.974H12.859C10.691 40.974 8.646 40.129 7.113 38.595 5.577 37.06 4.731 35.018 4.731 32.851V20.984C4.731 20.699 5.268 15.767 1.18 11.678-2.904 7.594-7.844 8.129-8.129 8.129L-19.988 8.125C-20.275 8.125-25.207 7.594-29.297 11.68-33.381 15.767-32.85 20.704-32.85 20.984V32.851C-32.85 35.018-33.696 37.06-35.229 38.595-36.763 40.129-38.803 40.974-40.972 40.974H-52.836C-55.007 40.974-57.049 40.129-58.58 38.595-60.119 37.06-60.961 35.018-60.961 32.851V20.984C-60.961 20.699-60.43 15.767-64.516 11.68-68.596 7.596-73.535 8.129-73.82 8.125L-85.681 8.129C-87.852 8.129-89.896 7.281-91.428 5.747-92.961 4.212-93.811 2.169-93.811 0V-11.86C-93.811-14.029-92.961-16.07-91.428-17.604-89.891-19.141-87.852-19.986-85.681-19.986H-73.82C-71.652-19.986-69.609-19.141-68.074-17.604-66.538-16.07-65.695-14.029-65.695-11.86V0C-65.695 .287-66.229 5.225-62.145 9.309-58.057 13.395-53.123 12.861-52.836 12.861H-40.972C-40.688 12.861-35.752 13.395-31.668 9.309-27.58 5.225-28.113 .287-28.113 0V-11.86C-28.113-14.029-27.271-16.07-25.736-17.604-24.203-19.141-22.158-19.986-19.988-19.986H-8.124C-5.955-19.986-3.916-19.141-2.382-17.604-.846-16.07 0-14.029 0-11.86Z" fill="#cbdb2d"/>
<path transform="matrix(1,0,0,-1,70.6005,126.19809)" d="M0 0C0-.285 .531-5.221-3.553-9.306-7.639-13.392-12.574-12.858-12.86-12.858H-24.721C-26.895-12.858-28.933-13.704-30.467-15.238-32.004-16.773-32.85-18.816-32.85-20.986V-32.848C-32.85-35.016-32.004-37.059-30.467-38.593-28.933-40.125-26.891-40.971-24.721-40.971H-12.86C-12.574-40.971-7.639-40.439-3.553-44.523 .531-48.609 0-53.543 0-53.831V-65.694C0-67.863 .845-69.905 2.379-71.439 3.916-72.973 5.955-73.82 8.126-73.82H19.989C22.158-73.82 24.198-72.973 25.731-71.439 27.268-69.905 28.109-67.863 28.109-65.694V-53.831C28.109-51.66 27.268-49.619 25.731-48.084 24.198-46.549 22.158-45.705 19.989-45.705H8.126C7.843-45.705 2.904-46.238-1.181-42.152-5.267-38.067-4.732-33.135-4.732-32.848V-20.986C-4.732-20.697-5.267-15.766-1.181-11.681 2.904-7.593 7.843-8.125 8.126-8.125L19.989-8.127C22.158-8.127 24.198-7.281 25.731-5.746 27.268-4.209 28.109-2.168 28.115 0V11.861C28.109 14.033 27.268 16.071 25.731 17.606 24.198 19.14 22.158 19.989 19.989 19.989H8.126C5.955 19.989 3.916 19.14 2.379 17.606 .845 16.071 0 14.033 0 11.861Z" fill="#146db7"/>
<path transform="matrix(1,0,0,-1,6.2197,292.8309)" d="M0 0C.074 .593 .555 .814 1.517 .814H1.665C2.701 .814 3.071 .556 3.071 0L2.664-3.885H5.81C6.253-3.885 6.401-4.07 6.401-4.588 6.401-4.736 6.143-6.549 4.736-6.549H2.368C2.368-6.549 1.11-17.946 1.11-18.686 1.11-20.388 1.924-20.795 2.886-20.795 4.033-20.795 4.292-20.536 4.551-20.536 4.662-20.536 4.811-20.61 4.811-20.869 4.811-20.906 4.773-21.609 4.625-22.238 4.403-23.163 3.183-23.459 2.109-23.459 .444-23.459-2.035-22.941-2.035-19.389-2.035-18.279-.74-6.549-.74-6.549H-2.59C-3.108-6.549-3.22-6.143-3.22-5.55-3.22-5.143-3.183-3.885-2.294-3.885H-.444Z" fill="#ffffff"/>
<path transform="matrix(1,0,0,-1,53.0986,305.5223)" d="M0 0H2.627C3.7 0 9.768 0 9.768 3.812 9.768 5.181 8.547 6.364 6.439 6.364 2.145 6.364 .48 3.441 0 0M10.952-6.291C11.101-6.291 11.212-6.291 11.212-6.734 11.212-6.846 11.175-7.623 11.026-8.399 10.693-10.139 6.549-10.768 4.958-10.768 1.295-10.768-3.404-9.731-3.404-3.108-3.404 3.515-.482 9.028 6.771 9.028 11.434 9.028 12.987 5.994 12.987 4.107 12.987-1.036 8.029-2.664 2.997-2.664 1.628-2.664 .592-2.554-.186-2.405V-2.775C-.186-6.883 1.961-8.104 5.217-8.104 8.547-8.104 10.435-6.291 10.952-6.291" fill="#ffffff"/>
<path transform="matrix(1,0,0,-1,117.2197,314.5878)" d="M0 0C-.296-1.48-4.107-1.702-5.255-1.702-10.472-1.702-13.247 .555-13.247 6.068-13.247 12.433-10.583 18.094-3.479 18.094-.111 18.094 1.702 16.947 1.702 16.17 1.702 15.688 .888 14.319 .259 14.319-.037 14.319-.889 15.43-3.849 15.43-7.29 15.43-10.028 12.987-10.028 6.29-10.028 2.59-8.474 .962-4.996 .962-1.998 .962-.407 2.108-.037 2.108 .11 2.108 .185 2.072 .185 1.665 .185 1.591 .147 .739 0 0" fill="#ffffff"/>
<path transform="matrix(1,0,0,-1,159.25,289.05653)" d="M0 0C.074 .592 .592 .814 1.554 .814H1.702C2.738 .814 3.108 .556 3.108 0L1.924-11.026C3.885-8.399 6.18-7.437 8.399-7.437 11.988-7.437 13.284-9.51 13.284-12.248 13.284-12.877 12.211-22.275 12.211-23.053 12.211-24.569 12.951-24.569 13.543-24.569 13.987-24.569 14.32-24.385 14.542-24.385 14.653-24.385 14.764-24.422 14.764-24.644 14.764-24.681 14.764-25.198 14.616-26.013 14.431-26.937 13.061-27.233 12.395-27.233 10.286-27.233 9.065-26.124 9.065-23.607 9.065-22.387 10.102-13.69 10.102-12.987 10.102-11.101 9.177-10.139 7.289-10.139 5.661-10.139 3.034-11.285 1.406-16.021L.333-26.271C.259-26.79-.333-27.086-1.221-27.086H-1.369C-2.368-27.086-2.775-26.753-2.775-26.309Z" fill="#ffffff"/>
<path transform="matrix(1,0,0,-1,227.3681,313.62593)" d="M0 0C.443 0 .776 .185 .999 .185 1.109 .185 1.221 .147 1.221-.074 1.221-.111 1.221-.629 1.073-1.443 .888-2.368-.481-2.664-1.147-2.664-3.257-2.664-4.478-1.555-4.478 .962-4.478 2.183-3.441 10.879-3.441 11.582-3.441 13.469-4.366 14.431-6.254 14.431-7.882 14.431-10.546 13.247-12.137 8.474-12.618 3.7-13.21-1.702-13.21-1.702-13.284-2.221-13.802-2.517-14.765-2.517H-14.912C-15.911-2.517-16.318-2.184-16.318-1.739-16.318-1.739-14.69 12.729-14.69 14.468-14.69 15.355-14.728 15.504-14.728 15.726-14.728 16.54-12.914 16.577-12.655 16.577-12.396 16.577-11.693 16.466-11.693 13.802-11.693 13.802-11.693 13.617-11.731 13.395-9.732 16.133-7.4 17.132-5.144 17.132-1.555 17.132-.26 15.06-.26 12.321-.26 11.692-1.332 2.294-1.332 1.517-1.332 0-.593 0 0 0" fill="#ffffff"/>
<path transform="matrix(1,0,0,-1,280.2402,304.5975)" d="M0 0C0 3.7-1.48 5.439-4.626 5.439-8.696 5.439-10.805 1.924-10.805-3.626-10.805-7.289-9.288-9.028-6.143-9.028-2.184-9.028 0-5.884 0 0M-4.219 8.104C.629 8.104 3.219 5.291 3.219 .074 3.219-7.585-.407-11.692-6.328-11.692-11.36-11.692-13.987-8.918-13.987-3.737-13.987 2.405-11.175 8.104-4.219 8.104" fill="#ffffff"/>
<path transform="matrix(1,0,0,-1,327.2285,313.62593)" d="M0 0C.444 0 .777 .185 1 .185 1.11 .185 1.222 .147 1.222-.074 1.222-.111 1.222-.629 1.073-1.443 .889-2.368-.48-2.664-1.146-2.664-3.256-2.664-4.477-1.555-4.477 .962-4.477 2.627-2.071 24.458-2.071 24.569-1.998 25.161-1.479 25.384-.518 25.384H-.369C.666 25.384 1.036 25.125 1.036 24.569 1.036 24.569-1.332 2.627-1.332 1.517-1.332 0-.592 0 0 0" fill="#ffffff"/>
<path transform="matrix(1,0,0,-1,380.8798,304.5975)" d="M0 0C0 3.7-1.48 5.439-4.626 5.439-8.696 5.439-10.805 1.924-10.805-3.626-10.805-7.289-9.288-9.028-6.142-9.028-2.184-9.028 0-5.884 0 0M-4.219 8.104C.629 8.104 3.219 5.291 3.219 .074 3.219-7.585-.407-11.692-6.328-11.692-11.36-11.692-13.987-8.918-13.987-3.737-13.987 2.405-11.175 8.104-4.219 8.104" fill="#ffffff"/>
<path transform="matrix(1,0,0,-1,435.7128,300.6386)" d="M0 0C-.74 .556-2.109 1.443-4.033 1.443-9.103 1.443-10.36-2.997-10.36-7.437-10.36-11.471-8.621-12.729-6.512-12.729-4.847-12.729-2.331-11.359-.776-6.401L-.296-1.85C-.222-1.184-.11-.592 0 0M1.776-11.767C.852-20.61-1.961-23.274-7.252-23.274-11.026-23.274-13.616-21.757-13.616-20.647-13.616-18.834-13.283-18.612-13.099-18.612-12.654-18.612-11.1-20.61-7.252-20.61-3.7-20.61-1.812-18.057-1.258-11.434-2.812-14.319-4.995-15.43-7.215-15.43-9.694-15.43-13.58-13.912-13.58-7.659-13.58-.776-9.953 4.145-4.329 4.145-1.961 4.145-.296 2.924 .556 2.146 .926 3.22 1.185 3.997 2.221 3.997H2.442C3.183 3.997 3.367 3.7 3.367 3.22Z" fill="#ffffff"/>
<path transform="matrix(1,0,0,-1,480.7031,322.9882)" d="M0 0C-.259-.555-.925-.776-1.812-.776H-2.368C-3.145-.776-3.515-.592-3.515-.222-3.515 .037-2.59 1.739 .63 7.956-4.07 25.348-4.107 25.495-4.107 25.717-4.107 26.087-3.552 26.347-2.441 26.347H-2.146C-1.405 26.347-.851 26.198-.739 25.754L2.887 12.396 9.214 25.754C9.435 26.198 10.028 26.347 10.805 26.347 11.878 26.347 12.322 26.124 12.322 25.754 12.322 25.569 12.248 25.458 12.174 25.199Z" fill="#ffffff"/>
<path transform="matrix(1,0,0,-1,585.0439,300.6386)" d="M0 0C-.703 .556-1.999 1.443-3.849 1.443-8.771 1.443-9.991-2.997-9.991-7.437-9.991-11.655-8.326-12.95-6.328-12.95-4.7-12.95-2.295-11.581-.777-6.697-.556-4.255-.297-1.85-.297-1.85-.223-1.184-.111-.592 0 0M3.219-12.987C3.663-12.987 3.996-12.803 4.218-12.803 4.329-12.803 4.44-12.84 4.44-13.062 4.44-13.099 4.44-13.616 4.292-14.431 4.106-15.355 2.737-15.651 2.071-15.651-.037-15.651-1.259-14.542-1.259-12.025V-11.655C-2.775-14.542-4.885-15.651-7.031-15.651-9.436-15.651-13.21-14.098-13.21-7.659-13.21-.776-9.658 4.145-4.144 4.145-1.851 4.145-.26 2.924 .555 2.146 .925 3.22 1.184 3.997 2.22 3.997H2.441C3.182 3.997 3.367 3.7 3.367 3.22 3.367 3.22 1.887-10.472 1.887-11.471 1.887-12.987 2.627-12.987 3.219-12.987" fill="#ffffff"/>
<path transform="matrix(1,0,0,-1,626.4082,312.1825)" d="M0 0C.407 0 1.739-1.443 4.44-1.443 6.661-1.443 8.399-.297 8.399 1.812 8.399 6.475 .37 4.143 .37 10.139 .37 13.469 3.257 15.688 7.104 15.688 8.732 15.688 11.693 15.244 11.693 13.912 11.693 13.506 10.953 12.137 10.361 12.137 10.139 12.137 8.992 13.024 7.142 13.024 4.885 13.024 3.627 12.063 3.627 10.545 3.627 6.993 11.582 8.621 11.582 2.441 11.582-1.443 8.844-4.107 4.589-4.107 3.257-4.107-.592-3.516-.592-1.999-.592-.519-.259 0 0 0" fill="#ffffff"/>
<path transform="matrix(1,0,0,-1,732.2666,300.6386)" d="M0 0C-.703 .556-1.999 1.443-3.849 1.443-8.771 1.443-9.991-2.997-9.991-7.437-9.991-11.655-8.326-12.95-6.328-12.95-4.7-12.95-2.295-11.581-.777-6.697-.556-4.255-.297-1.85-.297-1.85-.223-1.184-.111-.592 0 0M3.219-12.987C3.663-12.987 3.996-12.803 4.218-12.803 4.329-12.803 4.439-12.84 4.439-13.062 4.439-13.099 4.439-13.616 4.292-14.431 4.106-15.355 2.737-15.651 2.071-15.651-.037-15.651-1.259-14.542-1.259-12.025V-11.655C-2.775-14.542-4.885-15.651-7.031-15.651-9.437-15.651-13.21-14.098-13.21-7.659-13.21-.776-9.658 4.145-4.145 4.145-1.851 4.145-.26 2.924 .555 2.146 .925 3.22 1.183 3.997 2.22 3.997H2.441C3.182 3.997 3.367 3.7 3.367 3.22 3.367 3.22 1.887-10.472 1.887-11.471 1.887-12.987 2.627-12.987 3.219-12.987" fill="#ffffff"/>
<path transform="matrix(1,0,0,-1,816.8095,312.1825)" d="M0 0C.407 0 1.739-1.443 4.44-1.443 6.661-1.443 8.399-.297 8.399 1.812 8.399 6.475 .37 4.143 .37 10.139 .37 13.469 3.257 15.688 7.104 15.688 8.732 15.688 11.693 15.244 11.693 13.912 11.693 13.506 10.953 12.137 10.361 12.137 10.139 12.137 8.992 13.024 7.142 13.024 4.885 13.024 3.627 12.063 3.627 10.545 3.627 6.993 11.582 8.621 11.582 2.441 11.582-1.443 8.844-4.107 4.589-4.107 3.257-4.107-.592-3.516-.592-1.999-.592-.519-.259 0 0 0" fill="#ffffff"/>
<path transform="matrix(1,0,0,-1,880.451,304.5975)" d="M0 0C0 3.7-1.48 5.439-4.626 5.439-8.696 5.439-10.805 1.924-10.805-3.626-10.805-7.289-9.288-9.028-6.143-9.028-2.184-9.028 0-5.884 0 0M-4.219 8.104C.629 8.104 3.219 5.291 3.219 .074 3.219-7.585-.407-11.692-6.328-11.692-11.36-11.692-13.987-8.918-13.987-3.737-13.987 2.405-11.175 8.104-4.219 8.104" fill="#ffffff"/>
<path transform="matrix(1,0,0,-1,927.4394,313.62593)" d="M0 0C.444 0 .777 .185 1 .185 1.11 .185 1.222 .147 1.222-.074 1.222-.111 1.222-.629 1.073-1.443 .889-2.368-.481-2.664-1.147-2.664-3.256-2.664-4.477-1.555-4.477 .962-4.477 2.627-2.071 24.458-2.071 24.569-1.998 25.161-1.479 25.384-.518 25.384H-.369C.666 25.384 1.036 25.125 1.036 24.569 1.036 24.569-1.332 2.627-1.332 1.517-1.332 0-.592 0 0 0" fill="#ffffff"/>
<path transform="matrix(1,0,0,-1,982.163,312.1093)" d="M0 0C0-1.517 .739-1.517 1.332-1.517 1.775-1.517 2.108-1.332 2.331-1.332 2.441-1.332 2.553-1.369 2.553-1.591 2.553-1.628 2.553-2.146 2.404-2.96 2.22-3.885 .851-4.181 .185-4.181-1.925-4.181-3.146-3.071-3.146-.555V-.185C-5.106-3.108-7.475-4.181-9.732-4.181-13.321-4.181-14.616-2.108-14.616 .629-14.616 1.11-13.21 14.653-13.21 14.653-13.137 15.245-12.618 15.468-11.656 15.468H-11.508C-10.472 15.468-10.103 15.208-10.103 14.653-10.103 14.653-11.435 1.888-11.435 1.369-11.435-.518-10.509-1.48-8.622-1.48-6.994-1.48-4.293-.259-2.701 4.811-2.221 9.473-1.666 14.653-1.666 14.653-1.592 15.245-1.073 15.468-.111 15.468H.036C1.072 15.468 1.442 15.208 1.442 14.653 1.442 14.653 0 1.11 0 0" fill="#ffffff"/>
<path transform="matrix(1,0,0,-1,1025.5263,292.8309)" d="M0 0C.073 .593 .555 .814 1.517 .814H1.665C2.701 .814 3.071 .556 3.071 0L2.664-3.885H5.81C6.253-3.885 6.401-4.07 6.401-4.588 6.401-4.736 6.143-6.549 4.736-6.549H2.368C2.368-6.549 1.109-17.946 1.109-18.686 1.109-20.388 1.924-20.795 2.886-20.795 4.033-20.795 4.292-20.536 4.551-20.536 4.662-20.536 4.81-20.61 4.81-20.869 4.81-20.906 4.774-21.609 4.625-22.238 4.403-23.163 3.182-23.459 2.108-23.459 .443-23.459-2.035-22.941-2.035-19.389-2.035-18.279-.74-6.549-.74-6.549H-2.591C-3.108-6.549-3.22-6.143-3.22-5.55-3.22-5.143-3.183-3.885-2.295-3.885H-.444Z" fill="#ffffff"/>
<path transform="matrix(1,0,0,-1,1071.8867,289.05653)" d="M0 0C.074 .592 .593 .814 1.555 .814H1.999C3.034 .814 3.404 .592 3.404 0L3.183-2.183C3.183-2.664 2.813-2.997 1.776-2.997H1.332C.37-2.997-.222-2.849-.222-2.183ZM2.184-24.569C2.628-24.569 2.961-24.385 3.183-24.385 3.294-24.385 3.404-24.422 3.404-24.644 3.404-24.681 3.404-25.198 3.257-26.013 3.071-26.937 1.702-27.233 1.036-27.233-1.035-27.233-2.257-26.161-2.257-23.719-2.257-22.201-.813-8.399-.739-8.399-.666-7.808-.147-7.585 .814-7.585H.963C1.999-7.585 2.368-7.845 2.368-8.399 2.368-8.399 .889-21.942 .889-23.053 .889-24.569 1.592-24.569 2.184-24.569" fill="#ffffff"/>
<path transform="matrix(1,0,0,-1,1127.0546,304.5975)" d="M0 0C0 3.7-1.48 5.439-4.626 5.439-8.696 5.439-10.805 1.924-10.805-3.626-10.805-7.289-9.288-9.028-6.142-9.028-2.184-9.028 0-5.884 0 0M-4.219 8.104C.629 8.104 3.219 5.291 3.219 .074 3.219-7.585-.407-11.692-6.328-11.692-11.36-11.692-13.987-8.918-13.987-3.737-13.987 2.405-11.175 8.104-4.219 8.104" fill="#ffffff"/>
<path transform="matrix(1,0,0,-1,1184.4414,313.62593)" d="M0 0C.443 0 .776 .185 .999 .185 1.109 .185 1.221 .147 1.221-.074 1.221-.111 1.221-.629 1.073-1.443 .888-2.368-.481-2.664-1.147-2.664-3.257-2.664-4.478-1.555-4.478 .962-4.478 2.183-3.441 10.879-3.441 11.582-3.441 13.469-4.366 14.431-6.254 14.431-7.882 14.431-10.546 13.247-12.137 8.474-12.618 3.7-13.21-1.702-13.21-1.702-13.284-2.221-13.802-2.517-14.765-2.517H-14.912C-15.911-2.517-16.318-2.184-16.318-1.739-16.318-1.739-14.691 12.729-14.691 14.468-14.691 15.355-14.728 15.504-14.728 15.726-14.728 16.54-12.914 16.577-12.655 16.577-12.396 16.577-11.693 16.466-11.693 13.802-11.693 13.802-11.693 13.617-11.73 13.395-9.733 16.133-7.4 17.132-5.144 17.132-1.555 17.132-.26 15.06-.26 12.321-.26 11.692-1.332 2.294-1.332 1.517-1.332 0-.593 0 0 0" fill="#ffffff"/>
</g>
</g>
</svg>
